# Blender 4.5.2 LTS
# www.blender.org
mtllib stop.mtl
o Plane
v -0.499960 0.000000 0.499960
v 0.499960 0.000000 0.499960
v -0.499960 0.000000 -0.499960
v 0.499960 0.000000 -0.499960
v -0.499960 0.049996 0.499960
v 0.499960 0.049996 0.499960
v -0.499960 0.049996 -0.499960
v 0.499960 0.049996 -0.499960
vn -0.0000 -1.0000 -0.0000
vn -0.0000 1.0000 -0.0000
vn 1.0000 -0.0000 -0.0000
vn -1.0000 -0.0000 -0.0000
vn -0.0000 -0.0000 -1.0000
vn -0.0000 -0.0000 1.0000
vt 0.999900 0.999900
vt 0.000100 0.000100
vt 0.000100 0.999900
vt 0.999900 0.000100
s 0
usemtl Material.001
f 3/1/1 2/2/1 1/3/1
f 6/2/2 7/1/2 5/3/2
f 4/4/3 6/2/3 2/2/3
f 1/3/4 7/1/4 3/1/4
f 3/1/5 8/4/5 4/4/5
f 2/2/6 5/3/6 1/3/6
f 3/1/1 4/4/1 2/2/1
f 6/2/2 8/4/2 7/1/2
f 4/4/3 8/4/3 6/2/3
f 1/3/4 5/3/4 7/1/4
f 3/1/5 7/1/5 8/4/5
f 2/2/6 6/2/6 5/3/6
